<svg xmlns="http://www.w3.org/2000/svg" viewBox="0 0 24 20">
  <path fill-rule="evenodd" d="M24 2.37c-.888.405-1.832.67-2.8.79 1.032-.626 1.784-1.625 2.1-2.79-.95.593-2 1.007-3.1 1.22C19.275.58 17.97.004 16.6 0c-2.747.044-4.94 2.303-4.9 5.05-.017.386.016.773.1 1.15C7.826 5.992 4.14 4.065 1.7.92c-.482.758-.726 1.642-.7 2.54.004 1.675.825 3.243 2.2 4.2-.776-.013-1.535-.23-2.2-.63v.07c-.018 2.36 1.602 4.416 3.9 4.95-.423.117-.86.174-1.3.17-.302 0-.604-.03-.9-.09.598 2.052 2.463 3.475 4.6 3.51-2.053 1.65-4.685 2.405-7.3 2.09 2.228 1.465 4.833 2.254 7.5 2.27 9.1 0 14.1-7.69 14.1-14.37.015-.22-.02-.443-.1-.65.98-.717 1.826-1.6 2.5-2.61z"/>
</svg>
