<svg xmlns="http://www.w3.org/2000/svg" viewBox="0 0 24 24">
  <path fill-rule="evenodd" d="M20.4.01H3.6c-.958 0-1.877.382-2.553 1.06C.372 1.75-.005 2.672 0 3.63v16.75c-.005.958.372 1.88 1.047 2.56C1.723 23.618 2.642 24 3.6 24h16.8c.958 0 1.877-.382 2.553-1.06.675-.68 1.052-1.602 1.047-2.56V3.63c.005-.958-.372-1.88-1.047-2.56C22.277.392 21.358.01 20.4.01zM7.3 20.15H3.7V9.3h3.6v10.85zM5.5 7.82h-.1c-.71.044-1.386-.317-1.744-.933-.358-.616-.338-1.382.053-1.978.39-.598 1.08-.923 1.79-.84.517-.04 1.03.142 1.41.497.38.355.592.852.59 1.372 0 .52-.216 1.015-.595 1.37-.378.357-.887.54-1.406.51zm14.8 12.33h-3.6v-5.81c0-1.46-.6-2.45-1.9-2.45-.83-.015-1.565.525-1.8 1.32-.088.284-.122.583-.1.88v6.06H9.3V9.3h3.6v1.53c.627-1.17 1.876-1.867 3.2-1.79 2.4 0 4.2 1.55 4.2 4.89v6.22z"/>
</svg>
