<svg viewBox="0 0 61 43" xmlns="http://www.w3.org/2000/svg">
  <g fill="none" fill-rule="evenodd">
    <path d="M59.676 33.373s-.586 4.135-2.385 5.956c-2.28 2.39-4.838 2.4-6.01 2.54-8.397.607-21.005.626-21.005.626s-15.6-.142-20.4-.602c-1.335-.25-4.333-.175-6.616-2.565-1.8-1.822-2.385-5.957-2.385-5.957s-.6-4.855-.6-9.71V19.11c0-4.855.6-9.71.6-9.71S1.46 5.265 3.26 3.444c2.282-2.39 4.838-2.4 6.01-2.54C17.67.295 30.263.295 30.263.295h.026s12.595 0 20.99.607c1.174.14 3.73.152 6.013 2.54 1.8 1.822 2.386 5.957 2.386 5.957s.6 4.855.6 9.71v4.553c0 4.855-.6 9.71-.6 9.71z" fill="#00D1B8"/>
    <path fill="#FFF" d="M24.166 12.32v16.918l16.095-8.46"/>
  </g>
</svg>
