<?xml version="1.0" standalone="no"?>
<!DOCTYPE svg PUBLIC "-//W3C//DTD SVG 20010904//EN"
 "http://www.w3.org/TR/2001/REC-SVG-20010904/DTD/svg10.dtd">
<svg version="1.0" xmlns="http://www.w3.org/2000/svg"
 width="520.000000pt" height="520.000000pt" viewBox="0 0 520.000000 520.000000"
 preserveAspectRatio="xMidYMid meet">
<metadata>
Created by potrace 1.11, written by Peter Selinger 2001-2013
</metadata>
<g transform="translate(0.000000,520.000000) scale(0.100000,-0.100000)"
fill="#000000" stroke="none">
<path d="M951 3482 l-883 -877 881 -875 c484 -481 884 -874 888 -872 4 1 178
171 385 377 207 206 379 375 382 375 2 0 177 -171 387 -380 211 -209 384 -378
385 -377 2 1 399 396 884 877 l882 875 -883 877 c-486 482 -884 876 -886 875
-1 -1 -170 -169 -375 -373 -205 -204 -379 -374 -386 -378 -8 -5 -140 120 -393
371 -209 208 -381 379 -383 380 -1 1 -399 -393 -885 -875z m1184 246 c162
-161 295 -296 295 -300 0 -4 -185 -191 -410 -415 l-411 -408 406 -405 c222
-223 408 -408 412 -413 5 -6 -521 -538 -580 -585 -14 -12 -96 66 -728 695
l-711 709 118 118 c66 64 385 383 710 707 325 324 594 589 598 589 4 0 139
-132 301 -292z m1956 -415 l710 -708 -699 -695 c-384 -382 -706 -701 -715
-708 -15 -12 -51 20 -312 280 -162 161 -295 296 -295 300 0 3 185 190 410 414
l411 409 -411 407 c-225 225 -410 411 -410 415 0 10 583 593 593 593 4 0 327
-318 718 -707z m-1153 -1030 c-178 -178 -327 -323 -333 -323 -6 0 -156 146
-334 324 l-323 323 328 326 329 327 327 -328 328 -327 -322 -322z"/>
</g>
</svg>
